HIERARCHY
ROOT Hips
{
 OFFSET 0.000000 0.000000 0.000000
 CHANNELS 6 Xposition Yposition Zposition Yrotation Xrotation Zrotation
 JOINT Chest
 {
  OFFSET 0.000000 10.472350 -0.000389
  CHANNELS 3 Yrotation Xrotation Zrotation
  JOINT Chest2
  {
   OFFSET 0.000000 11.551931 0.000707
   CHANNELS 3 Yrotation Xrotation Zrotation
   JOINT Chest3
   {
    OFFSET 0.000000 10.437915 0.000000
    CHANNELS 3 Yrotation Xrotation Zrotation
    JOINT Chest4
    {
     OFFSET 0.000000 10.437915 0.000000
     CHANNELS 3 Yrotation Xrotation Zrotation
     JOINT Neck
     {
      OFFSET 0.000000 14.676306 0.000000
      CHANNELS 3 Yrotation Xrotation Zrotation
      JOINT Head
      {
       OFFSET 0.000000 9.715761 0.001682
       CHANNELS 3 Yrotation Xrotation Zrotation
       End Site
       {
        OFFSET 0.000000 18.584037 0.000879
       }
      }
     }
     JOINT RightCollar
     {
      OFFSET -3.192169 8.189398 0.000000
      CHANNELS 3 Yrotation Xrotation Zrotation
      JOINT RightShoulder
      {
       OFFSET -14.921841 0.000000 0.000000
       CHANNELS 3 Yrotation Xrotation Zrotation
       JOINT RightElbow
       {
        OFFSET 0.000000 -31.895804 0.000000
        CHANNELS 3 Yrotation Xrotation Zrotation
        JOINT RightWrist
        {
         OFFSET 0.000000 -26.087765 -0.000000
         CHANNELS 3 Yrotation Xrotation Zrotation
         End Site
         {
          OFFSET 0.000000 -19.509425 0.000000
         }
        }
       }
      }
     }
     JOINT LeftCollar
     {
      OFFSET 3.192169 8.189398 0.000000
      CHANNELS 3 Yrotation Xrotation Zrotation
      JOINT LeftShoulder
      {
       OFFSET 14.921841 0.000000 0.000000
       CHANNELS 3 Yrotation Xrotation Zrotation
       JOINT LeftElbow
       {
        OFFSET 0.000000 -31.895804 0.000000
        CHANNELS 3 Yrotation Xrotation Zrotation
        JOINT LeftWrist
        {
         OFFSET 0.000000 -26.087765 -0.000000
         CHANNELS 3 Yrotation Xrotation Zrotation
         End Site
         {
          OFFSET 0.000000 -19.509425 0.000000
         }
        }
       }
      }
     }
    }
   }
  }
 }
 JOINT RightHip
 {
  OFFSET -8.507794 0.001908 0.000195
  CHANNELS 3 Yrotation Xrotation Zrotation
  JOINT RightKnee
  {
   OFFSET 0.000000 -44.002854 -0.000184
   CHANNELS 3 Yrotation Xrotation Zrotation
   JOINT RightAnkle
   {
    OFFSET 0.000000 -43.029750 -0.000312
    CHANNELS 3 Yrotation Xrotation Zrotation
    JOINT RightToe
    {
     OFFSET 0.000000 -7.822577 17.783028
     CHANNELS 3 Yrotation Xrotation Zrotation
     End Site
     {
      OFFSET 0.000000 -1.616737 7.073338
     }
    }
   }
  }
 }
 JOINT LeftHip
 {
  OFFSET 8.507794 0.001908 0.000195
  CHANNELS 3 Yrotation Xrotation Zrotation
  JOINT LeftKnee
  {
   OFFSET 0.000000 -44.002854 -0.000184
   CHANNELS 3 Yrotation Xrotation Zrotation
   JOINT LeftAnkle
   {
    OFFSET 0.000000 -43.029750 -0.000312
    CHANNELS 3 Yrotation Xrotation Zrotation
    JOINT LeftToe
    {
     OFFSET 0.000000 -7.822577 17.783028
     CHANNELS 3 Yrotation Xrotation Zrotation
     End Site
     {
      OFFSET 0.000000 -1.616737 7.073338
     }
    }
   }
  }
 }
}
MOTION
Frames: 17
Frame Time: 0.008333
329.106101 96.743387 -25.308294 -52.945956 -11.471806 -1.376612 3.183290 7.662289 1.111750 1.391332 3.450458 0.454924 1.391332 3.450458 0.454924 1.040613 2.588896 0.333228 -0.835540 13.487913 -0.048312 -0.851536 -11.832311 0.139178 -6.748254 6.548003 12.915211 -8.349582 -10.318874 -18.030256 8.003479 -17.437370 5.644369 7.818268 2.898112 -29.409716 -1.896114 7.625933 -7.119173 0.648704 -18.114511 18.716899 -5.940212 -3.113661 -7.778085 -7.722756 -11.905957 20.880073 -12.217200 13.178195 -6.810459 -5.433554 5.622669 0.535566 -3.446818 -3.596676 3.166181 0.291603 -0.414126 0.095423 12.791221 10.319211 8.197826 -0.685578 8.585571 1.199401 12.336257 -5.361412 -1.782163 -0.257227 -0.385194 -0.100668
328.990337 96.740044 -25.267464 -52.932300 -11.563393 -1.367686 3.135957 7.621574 1.112039 1.369710 3.431798 0.454860 1.369710 3.431798 0.454860 1.024419 2.574884 0.333346 -0.723315 13.610706 -0.057028 -0.733484 -11.708436 0.104753 -6.770107 6.474333 12.890011 -8.353575 -10.206332 -18.090587 7.978444 -16.687922 5.355633 6.964934 3.008346 -29.964976 -1.900702 7.572672 -7.087471 0.613899 -17.892496 18.830977 -6.234447 -2.624228 -7.402383 -7.583942 -11.305679 20.834209 -12.249491 13.493524 -6.807980 -5.521272 5.328394 0.516927 -3.387914 -3.525402 3.178326 0.295756 -0.407229 0.087288 12.825326 10.501259 8.258130 -0.628672 8.534932 1.183594 12.266944 -5.395749 -1.812114 -0.256344 -0.380514 -0.099030
328.877689 96.736282 -25.230740 -52.923684 -11.642425 -1.352161 3.091118 7.587358 1.110410 1.350042 3.416447 0.454082 1.350042 3.416447 0.454082 1.009691 2.563354 0.332908 -0.606749 13.733264 -0.066460 -0.610982 -11.584519 0.068644 -6.790857 6.402512 12.853330 -8.354759 -10.081282 -18.157190 8.127676 -16.001198 5.032957 6.393456 3.292971 -30.265600 -1.900656 7.506450 -7.048924 0.579285 -17.668825 18.953394 -6.588574 -2.203941 -7.067012 -7.686897 -10.538943 20.522120 -12.259432 13.789033 -6.805627 -5.613453 5.045250 0.501979 -3.332941 -3.459779 3.193641 0.295424 -0.397115 0.077022 12.825479 10.684903 8.304484 -0.562035 8.463555 1.163060 12.218060 -5.417040 -1.836948 -0.255686 -0.374181 -0.099297
328.768034 96.733402 -25.197569 -52.923706 -11.714582 -1.331374 3.053884 7.547687 1.107951 1.333582 3.398934 0.452638 1.333582 3.398934 0.452638 0.997373 2.550204 0.331956 -0.489587 13.857383 -0.074979 -0.488201 -11.458638 0.033357 -6.802876 6.336478 12.811039 -8.373890 -9.939747 -18.230845 8.418238 -15.372876 4.693544 6.108486 3.724729 -30.309277 -1.906583 7.441176 -7.014131 0.558543 -17.422115 19.100687 -6.986012 -1.864368 -6.794039 -7.970370 -9.708804 19.951849 -12.253319 14.067878 -6.803127 -5.682092 4.774627 0.492647 -3.307903 -3.396238 3.202218 0.296018 -0.387446 0.071594 12.793720 10.875461 8.337367 -0.477145 8.372240 1.141809 12.183114 -5.423779 -1.856531 -0.256442 -0.369050 -0.102131
328.663163 96.731447 -25.167314 -52.930655 -11.782654 -1.303223 3.019523 7.515161 1.099214 1.318827 3.384552 0.447966 1.318827 3.384552 0.447966 0.986350 2.539396 0.328567 -0.369596 13.986284 -0.080850 -0.363153 -11.327455 0.000160 -6.815703 6.291297 12.771638 -8.410669 -9.811480 -18.309987 8.843116 -14.798301 4.360583 6.155582 4.264833 -30.114456 -1.897795 7.379317 -6.968306 0.533501 -17.191790 19.265527 -7.394741 -1.586274 -6.563936 -8.469030 -8.803751 19.151553 -12.223914 14.335558 -6.800677 -5.742876 4.511471 0.485612 -3.306055 -3.334615 3.207342 0.294584 -0.375423 0.068873 12.734675 11.077834 8.357687 -0.376570 8.254670 1.113508 12.168900 -5.413598 -1.868023 -0.256679 -0.364279 -0.105567
328.564566 96.729128 -25.138943 -52.944187 -11.839830 -1.271828 2.990931 7.478115 1.091616 1.306520 3.367630 0.442777 1.306520 3.367630 0.442777 0.977166 2.526684 0.324782 -0.254425 14.112171 -0.089349 -0.242461 -11.198880 -0.034679 -6.832086 6.252243 12.733864 -8.477914 -9.692174 -18.406414 9.369690 -14.279893 4.065469 6.492014 4.873153 -29.693545 -1.879141 7.319848 -6.924969 0.497803 -16.953749 19.436379 -7.836530 -1.362499 -6.399138 -9.096804 -7.927993 18.183013 -12.190849 14.578956 -6.798853 -5.788961 4.264581 0.475978 -3.312095 -3.278424 3.214785 0.291538 -0.360550 0.066995 12.666870 11.274558 8.368290 -0.267007 8.126461 1.087618 12.148005 -5.398030 -1.877406 -0.257144 -0.357917 -0.108462
328.473495 96.725896 -25.111889 -52.962501 -11.880341 -1.229193 2.971108 7.443641 1.078607 1.297863 3.351193 0.436106 1.297863 3.351193 0.436106 0.970726 2.514336 0.319864 -0.137525 14.233695 -0.099155 -0.119607 -11.074333 -0.071289 -6.852147 6.222779 12.698724 -8.578992 -9.581011 -18.511884 9.950729 -13.796276 3.809422 7.072134 5.490561 -29.084039 -1.869016 7.261041 -6.884215 0.481156 -16.734523 19.626188 -8.267668 -1.188458 -6.279803 -9.871283 -7.073710 17.067853 -12.135520 14.791920 -6.802955 -5.856800 4.036302 0.469454 -3.311833 -3.228738 3.224785 0.288857 -0.343570 0.063016 12.577604 11.465389 8.358191 -0.147055 7.982264 1.055066 12.151685 -5.375568 -1.879740 -0.256156 -0.347492 -0.110448
328.386577 96.722554 -25.087327 -52.981079 -11.908659 -1.189687 2.954105 7.404982 1.065682 1.290143 3.332602 0.429137 1.290143 3.332602 0.429137 0.964992 2.500372 0.314721 -0.008702 14.346639 -0.109867 0.015887 -10.958174 -0.111571 -6.883588 6.193515 12.671808 -8.702897 -9.472923 -18.623224 10.567827 -13.375420 3.605861 7.848068 6.059211 -28.311776 -1.855979 7.207072 -6.842743 0.480798 -16.524291 19.806491 -8.668906 -1.046116 -6.228062 -10.739634 -6.279337 15.924786 -12.081808 14.986687 -6.803263 -5.924106 3.815820 0.467380 -3.309212 -3.181060 3.230006 0.287676 -0.326240 0.060724 12.479982 11.642813 8.339623 -0.027827 7.835771 1.032643 12.158669 -5.349021 -1.883271 -0.254801 -0.336416 -0.113398
328.302931 96.719469 -25.062748 -53.000952 -11.934502 -1.146154 2.941103 7.373878 1.051970 1.284651 3.314554 0.421306 1.284651 3.314554 0.421306 0.960933 2.486815 0.308919 0.125024 14.455284 -0.125842 0.157795 -10.845976 -0.158455 -6.917823 6.178143 12.642407 -8.856933 -9.356846 -18.738801 11.209422 -13.019034 3.455054 8.755449 6.565822 -27.435199 -1.843547 7.166489 -6.798597 0.506464 -16.330501 19.984771 -9.039172 -0.953148 -6.221868 -11.679853 -5.533468 14.744344 -12.019745 15.175723 -6.803365 -5.992071 3.602340 0.461625 -3.313034 -3.162102 3.236306 0.284402 -0.285172 0.060223 12.366252 11.822315 8.310526 0.101590 7.687959 1.011037 12.161569 -5.345790 -1.886298 -0.253657 -0.303962 -0.114766
328.222690 96.715815 -25.040956 -53.026243 -11.941981 -1.102422 2.931772 7.330476 1.034256 1.281070 3.293500 0.412035 1.281070 3.293500 0.412035 0.958316 2.471002 0.302033 0.270752 14.553654 -0.140453 0.311991 -10.743899 -0.206707 -6.955057 6.160191 12.622728 -9.032391 -9.242694 -18.863276 11.864689 -12.727330 3.352886 9.720313 6.974980 -26.478607 -1.831929 7.143743 -6.751180 0.551056 -16.159732 20.142199 -9.404907 -0.897710 -6.268015 -12.578027 -4.848795 13.603403 -11.978686 15.332851 -6.803728 -6.022668 3.399930 0.452107 -3.322902 -3.123341 3.243465 0.282487 -0.265533 0.059887 12.245269 11.990594 8.269301 0.240016 7.520567 0.999724 12.177945 -5.306325 -1.890586 -0.252827 -0.292772 -0.116901
328.146465 96.712682 -25.018715 -53.044508 -11.939256 -1.052551 2.919194 7.290214 1.014398 1.276204 3.274029 0.403095 1.276204 3.274029 0.403095 0.954731 2.456377 0.295397 0.430109 14.638970 -0.160015 0.481641 -10.654780 -0.263247 -6.983891 6.152793 12.590972 -9.231428 -9.119529 -18.986357 12.526796 -12.505685 3.299168 10.690579 7.286713 -25.492382 -1.812325 7.120360 -6.711885 0.608603 -15.999613 20.295238 -9.739721 -0.881935 -6.358569 -13.402057 -4.220929 12.493551 -11.925734 15.478553 -6.804290 -6.057163 3.199219 0.442150 -3.354531 -3.083837 3.251656 0.281256 -0.247130 0.060046 12.102490 12.150674 8.209626 0.369177 7.351537 0.990188 12.218543 -5.262096 -1.890724 -0.252863 -0.282897 -0.120895
328.070090 96.710663 -24.998109 -53.061505 -11.935754 -1.005038 2.906538 7.250147 0.999916 1.271298 3.254719 0.395507 1.271298 3.254719 0.395507 0.951109 2.441875 0.289775 0.600668 14.711146 -0.186827 0.664816 -10.578694 -0.329931 -7.014356 6.144771 12.556861 -9.424965 -8.992225 -19.118121 13.155476 -12.354714 3.285024 11.665468 7.513374 -24.511628 -1.792662 7.105496 -6.690940 0.674484 -15.840235 20.437783 -10.066288 -0.916440 -6.496890 -14.080872 -3.647536 11.500795 -11.889322 15.614156 -6.806167 -6.063862 3.014048 0.433287 -3.400125 -3.051430 3.253581 0.282128 -0.230261 0.064186 11.958605 12.311772 8.151900 0.501200 7.174875 0.981835 12.255323 -5.208691 -1.890049 -0.253507 -0.276639 -0.124983
327.995052 96.709502 -24.977407 -53.073915 -11.934041 -0.956213 2.890453 7.220836 0.985310 1.264861 3.240785 0.388810 1.264861 3.240785 0.388810 0.946329 2.431407 0.284817 0.787457 14.765454 -0.215681 0.865619 -10.520494 -0.402537 -7.030442 6.142309 12.518031 -9.619544 -8.849810 -19.246732 13.732846 -12.274459 3.305768 12.536943 7.665900 -23.562267 -1.764968 7.090874 -6.672948 0.733639 -15.689091 20.566314 -10.354637 -0.989874 -6.651294 -14.586620 -3.131043 10.595057 -11.838144 15.747745 -6.808992 -6.075604 2.839284 0.428036 -3.454939 -3.019387 3.260618 0.280277 -0.218522 0.063255 11.815381 12.473968 8.095070 0.634432 6.995646 0.970570 12.275983 -5.150171 -1.888183 -0.253374 -0.273520 -0.126753
327.922191 96.708147 -24.957375 -53.086074 -11.931929 -0.902706 2.878100 7.195127 0.968883 1.260018 3.228988 0.381697 1.260018 3.228988 0.381697 0.942745 2.422541 0.279535 0.981986 14.800053 -0.244077 1.074732 -10.482175 -0.476561 -7.057206 6.144277 12.481560 -9.783294 -8.709140 -19.368804 14.251112 -12.262122 3.345201 13.314148 7.761559 -22.652249 -1.748559 7.072734 -6.663805 0.796466 -15.539918 20.678957 -10.623511 -1.080735 -6.829010 -14.912019 -2.674253 9.823601 -11.797743 15.869961 -6.822423 -6.067960 2.680553 0.425317 -3.515056 -2.994395 3.271479 0.278458 -0.208389 0.059548 11.690101 12.636524 8.038523 0.758774 6.807567 0.956702 12.284538 -5.083814 -1.886152 -0.253094 -0.272578 -0.125364
327.849788 96.705731 -24.938850 -53.103173 -11.931373 -0.853940 2.869833 7.178559 0.953189 1.256998 3.221027 0.374887 1.256998 3.221027 0.374887 0.940522 2.416554 0.274461 1.184716 14.824636 -0.274209 1.293256 -10.453658 -0.554426 -7.077954 6.151469 12.455669 -9.930892 -8.566096 -19.492055 14.717823 -12.306302 3.406076 13.952215 7.814966 -21.801187 -1.728279 7.051403 -6.655743 0.840359 -15.378452 20.790777 -10.824626 -1.204609 -7.021623 -15.084699 -2.270138 9.177106 -11.734630 15.990524 -6.828900 -6.072524 2.533289 0.428525 -3.574721 -2.977625 3.282564 0.276267 -0.196999 0.053480 11.581209 12.791696 7.991855 0.876431 6.631079 0.940700 12.290984 -5.023807 -1.887167 -0.252904 -0.270371 -0.122480
327.779412 96.703762 -24.921095 -53.135477 -11.945485 -0.807416 2.873880 7.166357 0.938095 1.259309 3.215894 0.369040 1.259309 3.215894 0.369040 0.942290 2.412694 0.270076 1.387470 14.845071 -0.298202 1.510940 -10.429026 -0.626096 -7.111422 6.169039 12.433746 -10.062961 -8.415572 -19.602874 15.129877 -12.409593 3.480889 14.484993 7.833193 -21.036765 -1.716106 7.033583 -6.641594 0.879818 -15.208511 20.868905 -10.994108 -1.338582 -7.217531 -15.107275 -1.940594 8.687514 -11.657259 16.112389 -6.833876 -6.078347 2.407112 0.430452 -3.632196 -2.966345 3.294032 0.273995 -0.188727 0.048696 11.507685 12.959115 7.957264 0.987715 6.450713 0.921329 12.298929 -4.960268 -1.884707 -0.254242 -0.269301 -0.120282
327.713562 96.701033 -24.903564 -53.165193 -11.965098 -0.767797 2.874660 7.161363 0.925905 1.259796 3.213414 0.364822 1.259796 3.213414 0.364822 0.942680 2.410825 0.266916 1.595208 14.868957 -0.321596 1.734339 -10.400277 -0.698493 -7.131223 6.192167 12.416573 -10.154979 -8.246427 -19.707042 15.470571 -12.545268 3.568362 14.816508 7.815380 -20.367674 -1.697284 7.025692 -6.627543 0.910303 -15.041782 20.924164 -11.104943 -1.482221 -7.417214 -15.041252 -1.690570 8.344456 -11.577938 16.231252 -6.835715 -6.080891 2.295879 0.434670 -3.692041 -2.960246 3.307725 0.270309 -0.181195 0.042755 11.441480 13.124353 7.937183 1.089809 6.277785 0.890109 12.290961 -4.905235 -1.876427 -0.253659 -0.264023 -0.117406
